<svg xmlns="http://www.w3.org/2000/svg" width="25" height="25" viewBox="0 0 25 25" fill="none">
  <path d="M21.25 0H3.75C1.67893 0 0 1.67893 0 3.75V21.25C0 23.3211 1.67893 25 3.75 25H21.25C23.3211 25 25 23.3211 25 21.25V3.75C25 1.67893 23.3211 0 21.25 0Z" fill="black"/>
  <path d="M21.25 0H3.75C1.67893 0 0 1.67893 0 3.75V21.25C0 23.3211 1.67893 25 3.75 25H21.25C23.3211 25 25 23.3211 25 21.25V3.75C25 1.67893 23.3211 0 21.25 0Z" fill="url(#paint0_radial_5379_901)"/>
  <path d="M21.25 0H3.75C1.67893 0 0 1.67893 0 3.75V21.25C0 23.3211 1.67893 25 3.75 25H21.25C23.3211 25 25 23.3211 25 21.25V3.75C25 1.67893 23.3211 0 21.25 0Z" fill="url(#paint1_linear_5379_901)"/>
  <path d="M16.0605 4.98047H8.93164C6.74731 4.98047 4.97656 6.75122 4.97656 8.93555V16.0645C4.97656 18.2488 6.74731 20.0195 8.93164 20.0195H16.0605C18.2449 20.0195 20.0156 18.2488 20.0156 16.0645V8.93555C20.0156 6.75122 18.2449 4.98047 16.0605 4.98047Z" stroke="white" stroke-width="1.05521"/>
  <path d="M12.5 16.0156C14.4416 16.0156 16.0156 14.4416 16.0156 12.5C16.0156 10.5584 14.4416 8.98438 12.5 8.98438C10.5584 8.98438 8.98438 10.5584 8.98438 12.5C8.98438 14.4416 10.5584 16.0156 12.5 16.0156Z" stroke="white" stroke-width="1.05521"/>
  <path d="M16.9336 8.34766C17.0954 8.34766 17.2266 8.21649 17.2266 8.05469C17.2266 7.89289 17.0954 7.76172 16.9336 7.76172C16.7718 7.76172 16.6406 7.89289 16.6406 8.05469C16.6406 8.21649 16.7718 8.34766 16.9336 8.34766Z" stroke="white" stroke-width="1.05521"/>
  <defs>
    <radialGradient id="paint0_radial_5379_901" cx="0" cy="0" r="1" gradientUnits="userSpaceOnUse" gradientTransform="translate(10 25) scale(25)">
      <stop offset="0.1" stop-color="#FFDD55"/>
      <stop offset="0.5" stop-color="#FF543E"/>
      <stop offset="1" stop-color="#C837AB"/>
    </radialGradient>
    <linearGradient id="paint1_linear_5379_901" x1="0" y1="0" x2="5" y2="25" gradientUnits="userSpaceOnUse">
      <stop offset="0.1" stop-color="#3771C8"/>
      <stop offset="0.5" stop-color="#6600FF" stop-opacity="0"/>
    </linearGradient>
  </defs>
</svg>