<svg xmlns="http://www.w3.org/2000/svg" width="25" height="22" viewBox="0 0 25 22" fill="none">
  <path d="M5.59598 21.5116H0.412946V7.14941H5.59598V21.5116ZM3.00167 5.19028C1.34431 5.19028 0 4.00903 0 2.58289C1.18627e-08 1.89787 0.316247 1.2409 0.87917 0.756512C1.44209 0.272125 2.20558 0 3.00167 0C3.79777 0 4.56125 0.272125 5.12418 0.756512C5.6871 1.2409 6.00335 1.89787 6.00335 2.58289C6.00335 4.00903 4.65848 5.19028 3.00167 5.19028ZM24.9944 21.5116H19.8225V14.5202C19.8225 12.854 19.7835 10.7172 17.1278 10.7172C14.433 10.7172 14.0201 12.5274 14.0201 14.4001V21.5116H8.84263V7.14941H13.8136V9.10855H13.8862C14.5781 7.98013 16.2684 6.78928 18.7902 6.78928C24.0357 6.78928 25 9.7616 25 13.6223V21.5116H24.9944Z" fill="#FFFCFC"/>
</svg>