<svg width="1512" height="1213" viewBox="0 0 1512 1213" fill="none" xmlns="http://www.w3.org/2000/svg">
<path d="M1354.92 647.544C1379.83 695.332 1427.65 704.988 1481.48 702.533C1579.71 698.055 1678.61 659.782 1749.35 603.286C1820.09 546.791 1848.34 470.293 1854.95 406.125C1864.98 308.859 1856.12 289.838 1812.97 224.517C1781.47 176.84 1759.99 153.707 1698.23 112.718C1636.48 71.729 1530.45 11.7735 1464.28 78.8554C1411.89 131.957 1463.97 266.403 1463.97 266.403C1463.97 266.403 1489.95 328.095 1482.57 378.114C1474.92 429.883 1414.85 493.747 1414.85 493.747C1414.85 493.747 1325.13 590.381 1354.92 647.544Z" fill="#FD0808"/>
<path d="M-300.272 868.353C-276.393 910.272 -297.245 964.23 -271.304 1029.37C-263.96 1047.81 -260.462 1058.63 -250.166 1075.6C-200.17 1158 -127.405 1203.94 -31.3438 1211.15C35.2699 1216.15 114.191 1215.54 143.244 1149.25C172.603 1082.26 114.633 1037.01 64.5 963C9.30518 881.513 3.48145 784.416 -85.7557 727.317C-133.513 696.759 -228.943 654.251 -283.831 706.945C-325.618 747.062 -324.15 826.434 -300.272 868.353Z" fill="#FD0808"/>
</svg>
