<svg xmlns="http://www.w3.org/2000/svg" width="25" height="26" viewBox="0 0 25 26" fill="none">
  <path d="M0 25.1074L1.76653 18.662C0.680353 16.7761 0.101456 14.6336 0.107424 12.4433C0.107424 5.58009 5.69348 0 12.5567 0C15.8868 0 19.0141 1.29506 21.3595 3.64645C23.7109 5.99785 25.0059 9.12508 25 12.4493C25 19.3125 19.4139 24.8926 12.5507 24.8926H12.5447C10.4619 24.8926 8.41489 24.3674 6.59465 23.3767L0 25.1074ZM6.90498 21.1208L7.28097 21.3476C8.86846 22.2905 10.6887 22.7858 12.5447 22.7918H12.5507C18.2502 22.7918 22.8933 18.1547 22.8933 12.4493C22.8933 9.68608 21.819 7.08999 19.8675 5.13249C17.916 3.17498 15.3139 2.10074 12.5507 2.10074C6.8453 2.10074 2.20219 6.73788 2.20219 12.4433C2.20219 14.3948 2.74528 16.2986 3.78372 17.9458L4.0284 18.3397L2.984 22.1532L6.90498 21.1208Z" fill="black" fill-opacity="0.24"/>
  <path d="M0.5625 24.4411L2.24816 18.2938C1.21083 16.4961 0.662697 14.4509 0.662697 12.3645C0.662697 5.82221 5.9908 0.5 12.5272 0.5C15.704 0.5 18.6804 1.73772 20.9201 3.97741C23.1598 6.21711 24.3916 9.19943 24.3916 12.3704C24.3916 18.9126 19.0635 24.2348 12.5272 24.2348H12.5213C10.535 24.2348 8.58413 23.7338 6.85132 22.7908L0.5625 24.4411Z" fill="url(#paint0_linear_5379_909)"/>
  <path d="M0.140625 24.8699L1.88523 18.5045C0.812532 16.642 0.240822 14.5261 0.246716 12.363C0.246716 5.58504 5.76343 0.0742188 12.5414 0.0742188C15.8302 0.0742188 18.9187 1.3532 21.235 3.67541C23.5572 5.99761 24.8362 9.08603 24.8303 12.3689C24.8303 19.147 19.3136 24.6578 12.5355 24.6578H12.5297C10.4727 24.6578 8.45106 24.1391 6.65341 23.1607L0.140625 24.8699ZM6.95989 20.9328L7.33121 21.1568C8.89899 22.088 10.6966 22.5772 12.5297 22.5831H12.5355C18.1642 22.5831 22.7497 18.0035 22.7497 12.3689C22.7497 9.64006 21.6888 7.0762 19.7615 5.14299C17.8342 3.20979 15.2644 2.14888 12.5355 2.14888C6.90095 2.14888 2.31548 6.72846 2.31548 12.363C2.31548 14.2904 2.85183 16.1705 3.87737 17.7972L4.11902 18.1862L3.08759 21.9525L6.95989 20.9328Z" fill="white"/>
  <path d="M9.46781 7.21603C9.23794 6.70326 8.99629 6.69148 8.77822 6.68558C8.6014 6.67969 8.39511 6.67969 8.18882 6.67969C7.98254 6.67969 7.65248 6.75631 7.36957 7.06279C7.08666 7.36928 6.29688 8.11191 6.29688 9.62665C6.29688 11.1355 7.39904 12.5972 7.55228 12.8035C7.70552 13.0098 9.67999 16.2102 12.7979 17.442C15.3912 18.4675 15.9217 18.2612 16.4816 18.2082C17.0474 18.1552 18.2969 17.4656 18.5562 16.7465C18.8097 16.0274 18.8097 15.4145 18.7331 15.2848C18.6564 15.1551 18.4501 15.0785 18.1437 14.9253C17.8372 14.772 16.3283 14.0294 16.0454 13.9233C15.7625 13.8172 15.5562 13.7701 15.3558 14.0766C15.1495 14.383 14.5602 15.0726 14.3833 15.2789C14.2065 15.4852 14.0238 15.5088 13.7173 15.3555C13.4108 15.2023 12.4207 14.8781 11.2478 13.829C10.3342 13.0157 9.71535 12.0078 9.53853 11.7013C9.36172 11.3948 9.52085 11.2298 9.67409 11.0766C9.80965 10.941 9.98058 10.717 10.1338 10.5402C10.2871 10.3634 10.3401 10.2337 10.4403 10.0274C10.5405 9.82115 10.4933 9.64433 10.4167 9.49109C10.3401 9.33785 9.73893 7.82311 9.46781 7.21603Z" fill="white"/>
  <defs>
    <linearGradient id="paint0_linear_5379_909" x1="3050.6" y1="6152.93" x2="3050.6" y2="0.156004" gradientUnits="userSpaceOnUse">
      <stop stop-color="#20B038"/>
      <stop offset="1" stop-color="#60D66A"/>
    </linearGradient>
  </defs>
</svg>