<svg width="226" height="94" viewBox="0 0 226 94" fill="none" xmlns="http://www.w3.org/2000/svg">
<g filter="url(#filter0_d_5482_3272)">
<rect width="196" height="64" transform="translate(15 5)" fill="url(#paint0_linear_5482_3272)"/>
<path d="M60.4377 31.832C61.611 31.832 62.6404 32.0613 63.5257 32.52C64.4217 32.9787 65.1097 33.6347 65.5897 34.488C66.0804 35.3307 66.3257 36.312 66.3257 37.432C66.3257 38.552 66.0804 39.5333 65.5897 40.376C65.1097 41.208 64.4217 41.8533 63.5257 42.312C62.6404 42.7707 61.611 43 60.4377 43H56.5337V31.832H60.4377ZM60.3577 41.096C61.531 41.096 62.4377 40.776 63.0777 40.136C63.7177 39.496 64.0377 38.5947 64.0377 37.432C64.0377 36.2693 63.7177 35.3627 63.0777 34.712C62.4377 34.0507 61.531 33.72 60.3577 33.72H58.7737V41.096H60.3577ZM69.1384 33.08C68.7438 33.08 68.4131 32.9573 68.1464 32.712C67.8904 32.456 67.7624 32.1413 67.7624 31.768C67.7624 31.3947 67.8904 31.0853 68.1464 30.84C68.4131 30.584 68.7438 30.456 69.1384 30.456C69.5331 30.456 69.8584 30.584 70.1144 30.84C70.3811 31.0853 70.5144 31.3947 70.5144 31.768C70.5144 32.1413 70.3811 32.456 70.1144 32.712C69.8584 32.9573 69.5331 33.08 69.1384 33.08ZM70.2424 34.136V43H68.0024V34.136H70.2424ZM75.8476 43.144C75.1222 43.144 74.4716 43.016 73.8956 42.76C73.3196 42.4933 72.8609 42.136 72.5196 41.688C72.1889 41.24 72.0076 40.744 71.9756 40.2H74.2316C74.2742 40.5413 74.4396 40.824 74.7276 41.048C75.0262 41.272 75.3942 41.384 75.8316 41.384C76.2582 41.384 76.5889 41.2987 76.8236 41.128C77.0689 40.9573 77.1916 40.7387 77.1916 40.472C77.1916 40.184 77.0422 39.9707 76.7436 39.832C76.4556 39.6827 75.9916 39.5227 75.3516 39.352C74.6902 39.192 74.1462 39.0267 73.7196 38.856C73.3036 38.6853 72.9409 38.424 72.6316 38.072C72.3329 37.72 72.1836 37.2453 72.1836 36.648C72.1836 36.1573 72.3222 35.7093 72.5996 35.304C72.8876 34.8987 73.2929 34.5787 73.8156 34.344C74.3489 34.1093 74.9729 33.992 75.6876 33.992C76.7436 33.992 77.5862 34.2587 78.2156 34.792C78.8449 35.3147 79.1916 36.024 79.2556 36.92H77.1116C77.0796 36.568 76.9302 36.2907 76.6636 36.088C76.4076 35.8747 76.0609 35.768 75.6236 35.768C75.2182 35.768 74.9036 35.8427 74.6796 35.992C74.4662 36.1413 74.3596 36.3493 74.3596 36.616C74.3596 36.9147 74.5089 37.144 74.8076 37.304C75.1062 37.4533 75.5702 37.608 76.1996 37.768C76.8396 37.928 77.3676 38.0933 77.7836 38.264C78.1996 38.4347 78.5569 38.7013 78.8556 39.064C79.1649 39.416 79.3249 39.8853 79.3356 40.472C79.3356 40.984 79.1916 41.4427 78.9036 41.848C78.6262 42.2533 78.2209 42.5733 77.6876 42.808C77.1649 43.032 76.5516 43.144 75.8476 43.144ZM80.5983 38.568C80.5983 37.6507 80.785 36.8507 81.1583 36.168C81.5316 35.4747 82.049 34.9413 82.7103 34.568C83.3716 34.184 84.129 33.992 84.9823 33.992C86.081 33.992 86.9876 34.2693 87.7023 34.824C88.4276 35.368 88.913 36.136 89.1583 37.128H86.7423C86.6143 36.744 86.3956 36.4453 86.0863 36.232C85.7876 36.008 85.4143 35.896 84.9663 35.896C84.3263 35.896 83.8196 36.1307 83.4463 36.6C83.073 37.0587 82.8863 37.7147 82.8863 38.568C82.8863 39.4107 83.073 40.0667 83.4463 40.536C83.8196 40.9947 84.3263 41.224 84.9663 41.224C85.873 41.224 86.465 40.8187 86.7423 40.008H89.1583C88.913 40.968 88.4276 41.7307 87.7023 42.296C86.977 42.8613 86.0703 43.144 84.9823 43.144C84.129 43.144 83.3716 42.9573 82.7103 42.584C82.049 42.2 81.5316 41.6667 81.1583 40.984C80.785 40.2907 80.5983 39.4853 80.5983 38.568ZM94.7353 43.144C93.882 43.144 93.114 42.9573 92.4313 42.584C91.7486 42.2 91.21 41.6613 90.8153 40.968C90.4313 40.2747 90.2393 39.4747 90.2393 38.568C90.2393 37.6613 90.4366 36.8613 90.8313 36.168C91.2366 35.4747 91.786 34.9413 92.4793 34.568C93.1726 34.184 93.946 33.992 94.7993 33.992C95.6526 33.992 96.426 34.184 97.1193 34.568C97.8126 34.9413 98.3566 35.4747 98.7513 36.168C99.1566 36.8613 99.3593 37.6613 99.3593 38.568C99.3593 39.4747 99.1513 40.2747 98.7353 40.968C98.33 41.6613 97.7753 42.2 97.0713 42.584C96.378 42.9573 95.5993 43.144 94.7353 43.144ZM94.7353 41.192C95.1406 41.192 95.5193 41.096 95.8713 40.904C96.234 40.7013 96.522 40.4027 96.7353 40.008C96.9486 39.6133 97.0553 39.1333 97.0553 38.568C97.0553 37.7253 96.8313 37.08 96.3833 36.632C95.946 36.1733 95.4073 35.944 94.7673 35.944C94.1273 35.944 93.5886 36.1733 93.1513 36.632C92.7246 37.08 92.5113 37.7253 92.5113 38.568C92.5113 39.4107 92.7193 40.0613 93.1353 40.52C93.562 40.968 94.0953 41.192 94.7353 41.192ZM104.698 40.936L106.938 34.136H109.322L106.042 43H103.322L100.058 34.136H102.458L104.698 40.936ZM118.821 38.376C118.821 38.696 118.799 38.984 118.757 39.24H112.277C112.33 39.88 112.554 40.3813 112.949 40.744C113.343 41.1067 113.829 41.288 114.405 41.288C115.237 41.288 115.829 40.9307 116.181 40.216H118.597C118.341 41.0693 117.85 41.7733 117.125 42.328C116.399 42.872 115.509 43.144 114.453 43.144C113.599 43.144 112.831 42.9573 112.149 42.584C111.477 42.2 110.949 41.6613 110.565 40.968C110.191 40.2747 110.005 39.4747 110.005 38.568C110.005 37.6507 110.191 36.8453 110.565 36.152C110.938 35.4587 111.461 34.9253 112.133 34.552C112.805 34.1787 113.578 33.992 114.453 33.992C115.295 33.992 116.047 34.1733 116.709 34.536C117.381 34.8987 117.898 35.416 118.261 36.088C118.634 36.7493 118.821 37.512 118.821 38.376ZM116.501 37.736C116.49 37.16 116.282 36.7013 115.877 36.36C115.471 36.008 114.975 35.832 114.389 35.832C113.834 35.832 113.365 36.0027 112.981 36.344C112.607 36.6747 112.378 37.1387 112.293 37.736H116.501ZM122.696 35.512C122.984 35.0427 123.357 34.6747 123.816 34.408C124.285 34.1413 124.818 34.008 125.416 34.008V36.36H124.824C124.12 36.36 123.586 36.5253 123.224 36.856C122.872 37.1867 122.696 37.7627 122.696 38.584V43H120.456V34.136H122.696V35.512ZM142.913 31.832V43H140.673V35.736L137.681 43H135.985L132.977 35.736V43H130.737V31.832H133.281L136.833 40.136L140.385 31.832H142.913ZM149.063 43.144C148.21 43.144 147.442 42.9573 146.759 42.584C146.077 42.2 145.538 41.6613 145.143 40.968C144.759 40.2747 144.567 39.4747 144.567 38.568C144.567 37.6613 144.765 36.8613 145.159 36.168C145.565 35.4747 146.114 34.9413 146.807 34.568C147.501 34.184 148.274 33.992 149.127 33.992C149.981 33.992 150.754 34.184 151.447 34.568C152.141 34.9413 152.685 35.4747 153.079 36.168C153.485 36.8613 153.687 37.6613 153.687 38.568C153.687 39.4747 153.479 40.2747 153.063 40.968C152.658 41.6613 152.103 42.2 151.399 42.584C150.706 42.9573 149.927 43.144 149.063 43.144ZM149.063 41.192C149.469 41.192 149.847 41.096 150.199 40.904C150.562 40.7013 150.85 40.4027 151.063 40.008C151.277 39.6133 151.383 39.1333 151.383 38.568C151.383 37.7253 151.159 37.08 150.711 36.632C150.274 36.1733 149.735 35.944 149.095 35.944C148.455 35.944 147.917 36.1733 147.479 36.632C147.053 37.08 146.839 37.7253 146.839 38.568C146.839 39.4107 147.047 40.0613 147.463 40.52C147.89 40.968 148.423 41.192 149.063 41.192ZM157.571 35.512C157.859 35.0427 158.232 34.6747 158.691 34.408C159.16 34.1413 159.693 34.008 160.291 34.008V36.36H159.699C158.995 36.36 158.461 36.5253 158.099 36.856C157.747 37.1867 157.571 37.7627 157.571 38.584V43H155.331V34.136H157.571V35.512ZM170.039 38.376C170.039 38.696 170.018 38.984 169.975 39.24H163.495C163.549 39.88 163.773 40.3813 164.167 40.744C164.562 41.1067 165.047 41.288 165.623 41.288C166.455 41.288 167.047 40.9307 167.399 40.216H169.815C169.559 41.0693 169.069 41.7733 168.343 42.328C167.618 42.872 166.727 43.144 165.671 43.144C164.818 43.144 164.05 42.9573 163.367 42.584C162.695 42.2 162.167 41.6613 161.783 40.968C161.41 40.2747 161.223 39.4747 161.223 38.568C161.223 37.6507 161.41 36.8453 161.783 36.152C162.157 35.4587 162.679 34.9253 163.351 34.552C164.023 34.1787 164.797 33.992 165.671 33.992C166.514 33.992 167.266 34.1733 167.927 34.536C168.599 34.8987 169.117 35.416 169.479 36.088C169.853 36.7493 170.039 37.512 170.039 38.376ZM167.719 37.736C167.709 37.16 167.501 36.7013 167.095 36.36C166.69 36.008 166.194 35.832 165.607 35.832C165.053 35.832 164.583 36.0027 164.199 36.344C163.826 36.6747 163.597 37.1387 163.511 37.736H167.719Z" fill="white"/>
</g>
<defs>
<filter id="filter0_d_5482_3272" x="0" y="0" width="226" height="94" filterUnits="userSpaceOnUse" color-interpolation-filters="sRGB">
<feFlood flood-opacity="0" result="BackgroundImageFix"/>
<feColorMatrix in="SourceAlpha" type="matrix" values="0 0 0 0 0 0 0 0 0 0 0 0 0 0 0 0 0 0 127 0" result="hardAlpha"/>
<feOffset dy="10"/>
<feGaussianBlur stdDeviation="7.5"/>
<feColorMatrix type="matrix" values="0 0 0 0 0.00392157 0 0 0 0 0.45098 0 0 0 0 0.6 0 0 0 0.2 0"/>
<feBlend mode="normal" in2="BackgroundImageFix" result="effect1_dropShadow_5482_3272"/>
<feBlend mode="normal" in="SourceGraphic" in2="effect1_dropShadow_5482_3272" result="shape"/>
</filter>
<linearGradient id="paint0_linear_5482_3272" x1="-4.96203" y1="13.8507" x2="171.899" y2="86.6209" gradientUnits="userSpaceOnUse">
<stop stop-color="#60BBEE"/>
<stop offset="1" stop-color="#0A72AD"/>
</linearGradient>
</defs>
</svg>
