<svg width="124" height="124" viewBox="0 0 124 124" fill="none" xmlns="http://www.w3.org/2000/svg">
<path d="M31.5368 52.7559C29.9927 52.3052 29.0944 50.6818 29.6775 49.1826C32.4053 42.1686 37.4316 36.2395 43.9937 32.3737C51.3995 28.0108 60.2119 26.5996 68.6583 28.4238C77.1047 30.2481 84.5583 35.1725 89.5198 42.2064C93.9148 48.4371 96.0655 55.9137 95.678 63.4305C95.5951 65.0399 94.1053 66.1525 92.5099 65.9254C90.9209 65.6993 89.8306 64.2286 89.8856 62.6245C90.0935 56.5509 88.3085 50.5335 84.756 45.4971C80.6398 39.6616 74.4562 35.5763 67.4489 34.0628C60.4416 32.5494 53.1307 33.7202 46.9867 37.3397C41.687 40.4619 37.5948 45.2061 35.2937 50.8238C34.684 52.3123 33.0809 53.2067 31.5368 52.7559Z" fill="#87D68D" fill-opacity="0.4"/>
<path d="M36.6363 42.8286C35.3154 41.8262 33.4191 42.0781 32.5389 43.4834C28.6662 49.6657 26.8974 56.9772 27.5452 64.33C28.2815 72.6883 32.0882 80.5097 38.2332 86.2898C44.3781 92.0699 52.4272 95.4004 60.8322 95.6406C69.2371 95.8809 77.4042 93.0139 83.7624 87.5912C90.1206 82.1685 94.2209 74.5731 95.2745 66.266C96.3281 57.9589 94.2606 49.527 89.4697 42.592C84.6788 35.6571 77.5029 30.7091 69.3223 28.6998C62.1295 26.9331 54.6067 27.548 47.8793 30.4045C46.3475 31.0549 45.8043 32.8984 46.6002 34.36C47.3876 35.806 49.1896 36.3294 50.7161 35.7124C56.1465 33.5176 62.1744 33.0756 67.9447 34.4929C74.6884 36.1492 80.6039 40.2282 84.5533 45.945C88.5028 51.6619 90.2071 58.6129 89.3386 65.4609C88.4701 72.3089 85.09 78.5703 79.8485 83.0405C74.607 87.5108 67.8744 89.8742 60.9457 89.6761C54.017 89.4781 47.3817 86.7326 42.316 81.9677C37.2504 77.2028 34.1123 70.7551 33.5053 63.865C32.9869 57.9808 34.3458 52.1289 37.3462 47.1294C38.1995 45.7076 37.9572 43.8311 36.6363 42.8286Z" fill="#029837" fill-opacity="0.7"/>
</svg>
