<svg width="660" height="700" viewBox="0 0 660 700" fill="none" xmlns="http://www.w3.org/2000/svg" xmlns:xlink="http://www.w3.org/1999/xlink">
<rect width="600" height="700" fill="url(#pattern0)"/>
<rect width="600" height="700" rx="30" fill="url(#paint0_linear_5491_4329)" fill-opacity="0.5"/>
<rect x="448" y="630" width="132" height="50" rx="25" fill="white" fill-opacity="0.72"/>
<path d="M482.984 659.016H478.792L478.12 661H475.256L479.32 649.768H482.488L486.552 661H483.656L482.984 659.016ZM482.28 656.904L480.888 652.792L479.512 656.904H482.28ZM490.525 653.336C490.792 652.92 491.16 652.584 491.629 652.328C492.098 652.072 492.648 651.944 493.277 651.944C494.013 651.944 494.68 652.131 495.277 652.504C495.874 652.877 496.344 653.411 496.685 654.104C497.037 654.797 497.213 655.603 497.213 656.52C497.213 657.437 497.037 658.248 496.685 658.952C496.344 659.645 495.874 660.184 495.277 660.568C494.68 660.941 494.013 661.128 493.277 661.128C492.658 661.128 492.109 661 491.629 660.744C491.16 660.488 490.792 660.157 490.525 659.752V665.256H487.789V652.072H490.525V653.336ZM494.429 656.52C494.429 655.837 494.237 655.304 493.853 654.92C493.48 654.525 493.016 654.328 492.461 654.328C491.917 654.328 491.453 654.525 491.069 654.92C490.696 655.315 490.509 655.853 490.509 656.536C490.509 657.219 490.696 657.757 491.069 658.152C491.453 658.547 491.917 658.744 492.461 658.744C493.005 658.744 493.469 658.547 493.853 658.152C494.237 657.747 494.429 657.203 494.429 656.52ZM501.384 653.336C501.651 652.92 502.019 652.584 502.488 652.328C502.958 652.072 503.507 651.944 504.136 651.944C504.872 651.944 505.539 652.131 506.136 652.504C506.734 652.877 507.203 653.411 507.544 654.104C507.896 654.797 508.072 655.603 508.072 656.52C508.072 657.437 507.896 658.248 507.544 658.952C507.203 659.645 506.734 660.184 506.136 660.568C505.539 660.941 504.872 661.128 504.136 661.128C503.518 661.128 502.968 661 502.488 660.744C502.019 660.488 501.651 660.157 501.384 659.752V665.256H498.648V652.072H501.384V653.336ZM505.288 656.52C505.288 655.837 505.096 655.304 504.712 654.92C504.339 654.525 503.875 654.328 503.32 654.328C502.776 654.328 502.312 654.525 501.928 654.92C501.555 655.315 501.368 655.853 501.368 656.536C501.368 657.219 501.555 657.757 501.928 658.152C502.312 658.547 502.776 658.744 503.32 658.744C503.864 658.744 504.328 658.547 504.712 658.152C505.096 657.747 505.288 657.203 505.288 656.52ZM512.244 649.16V661H509.508V649.16H512.244ZM523.346 652.072L517.746 665.24H514.802L516.85 660.696L513.218 652.072H516.274L518.338 657.656L520.386 652.072H523.346ZM537.774 661H535.038L530.462 654.072V661H527.726V649.768H530.462L535.038 656.728V649.768H537.774V661ZM543.822 661.128C542.947 661.128 542.158 660.941 541.454 660.568C540.76 660.195 540.211 659.661 539.806 658.968C539.411 658.275 539.214 657.464 539.214 656.536C539.214 655.619 539.416 654.813 539.822 654.12C540.227 653.416 540.782 652.877 541.486 652.504C542.19 652.131 542.979 651.944 543.854 651.944C544.728 651.944 545.518 652.131 546.222 652.504C546.926 652.877 547.48 653.416 547.886 654.12C548.291 654.813 548.494 655.619 548.494 656.536C548.494 657.453 548.286 658.264 547.87 658.968C547.464 659.661 546.904 660.195 546.19 660.568C545.486 660.941 544.696 661.128 543.822 661.128ZM543.822 658.76C544.344 658.76 544.787 658.568 545.15 658.184C545.523 657.8 545.71 657.251 545.71 656.536C545.71 655.821 545.528 655.272 545.166 654.888C544.814 654.504 544.376 654.312 543.854 654.312C543.32 654.312 542.878 654.504 542.526 654.888C542.174 655.261 541.998 655.811 541.998 656.536C541.998 657.251 542.168 657.8 542.51 658.184C542.862 658.568 543.299 658.76 543.822 658.76ZM562.761 652.072L560.345 661H557.321L555.913 655.208L554.457 661H551.449L549.017 652.072H551.753L553.017 658.456L554.521 652.072H557.417L558.937 658.424L560.185 652.072H562.761Z" fill="#FD0808"/>
<path d="M27.1136 619.609L20.6591 596.337H24.3523L28.8864 614.359H29.1023L33.8182 596.337H37.4773L42.1932 614.371H42.4091L46.9318 596.337H50.6364L44.1705 619.609H40.6364L35.7386 602.178H35.5568L30.6591 619.609H27.1136ZM59.3693 619.962C57.6496 619.962 56.1686 619.594 54.9261 618.859C53.6913 618.117 52.7367 617.075 52.0625 615.734C51.3958 614.386 51.0625 612.806 51.0625 610.996C51.0625 609.208 51.3958 607.632 52.0625 606.268C52.7367 604.905 53.6761 603.84 54.8807 603.075C56.0928 602.31 57.5095 601.928 59.1307 601.928C60.1155 601.928 61.0701 602.09 61.9943 602.416C62.9186 602.742 63.7481 603.253 64.483 603.95C65.2178 604.647 65.7973 605.553 66.2216 606.666C66.6458 607.772 66.858 609.117 66.858 610.7V611.905H52.983V609.359H63.5284C63.5284 608.465 63.3466 607.674 62.983 606.984C62.6193 606.287 62.108 605.738 61.4489 605.337C60.7973 604.935 60.0322 604.734 59.1534 604.734C58.1989 604.734 57.3655 604.969 56.6534 605.439C55.9489 605.901 55.4034 606.507 55.017 607.257C54.6383 608 54.4489 608.806 54.4489 609.678V611.666C54.4489 612.833 54.6534 613.825 55.0625 614.643C55.4792 615.462 56.0587 616.087 56.8011 616.518C57.5436 616.943 58.411 617.155 59.4034 617.155C60.0473 617.155 60.6345 617.064 61.1648 616.882C61.6951 616.693 62.1534 616.412 62.5398 616.041C62.9261 615.67 63.2216 615.212 63.4261 614.666L66.642 615.246C66.3845 616.193 65.9223 617.022 65.2557 617.734C64.5966 618.439 63.767 618.988 62.767 619.382C61.7746 619.768 60.642 619.962 59.3693 619.962ZM70.9006 619.609V596.337H74.2983V604.984H74.5028C74.6998 604.621 74.9839 604.2 75.3551 603.723C75.7263 603.246 76.2415 602.829 76.9006 602.473C77.5597 602.109 78.4309 601.928 79.5142 601.928C80.9233 601.928 82.1809 602.284 83.2869 602.996C84.393 603.708 85.2604 604.734 85.8892 606.075C86.5256 607.416 86.8438 609.03 86.8438 610.916C86.8438 612.803 86.5294 614.42 85.9006 615.768C85.2718 617.109 84.4081 618.143 83.3097 618.871C82.2112 619.59 80.9574 619.95 79.5483 619.95C78.4877 619.95 77.6203 619.772 76.946 619.416C76.2794 619.06 75.7566 618.643 75.3778 618.166C74.9991 617.689 74.7074 617.265 74.5028 616.893H74.2188V619.609H70.9006ZM74.2301 610.882C74.2301 612.109 74.4081 613.185 74.7642 614.109C75.1203 615.034 75.6354 615.757 76.3097 616.28C76.9839 616.795 77.8097 617.053 78.7869 617.053C79.8021 617.053 80.6506 616.784 81.3324 616.246C82.0142 615.7 82.5294 614.962 82.8778 614.03C83.2339 613.098 83.4119 612.049 83.4119 610.882C83.4119 609.731 83.2377 608.696 82.8892 607.78C82.5483 606.863 82.0331 606.14 81.3438 605.609C80.6619 605.079 79.8097 604.814 78.7869 604.814C77.8021 604.814 76.9688 605.068 76.2869 605.575C75.6127 606.083 75.1013 606.791 74.7528 607.7C74.4044 608.609 74.2301 609.67 74.2301 610.882ZM106.935 619.609H99.4006V596.337H107.173C109.454 596.337 111.412 596.803 113.048 597.734C114.685 598.659 115.938 599.988 116.81 601.723C117.688 603.45 118.128 605.522 118.128 607.939C118.128 610.363 117.685 612.446 116.798 614.189C115.92 615.931 114.647 617.272 112.98 618.212C111.313 619.143 109.298 619.609 106.935 619.609ZM102.912 616.541H106.741C108.514 616.541 109.988 616.208 111.162 615.541C112.336 614.867 113.215 613.893 113.798 612.621C114.382 611.34 114.673 609.78 114.673 607.939C114.673 606.113 114.382 604.564 113.798 603.291C113.223 602.018 112.363 601.053 111.219 600.393C110.075 599.734 108.654 599.405 106.957 599.405H102.912V616.541ZM129.744 619.962C128.025 619.962 126.544 619.594 125.301 618.859C124.066 618.117 123.112 617.075 122.438 615.734C121.771 614.386 121.438 612.806 121.438 610.996C121.438 609.208 121.771 607.632 122.438 606.268C123.112 604.905 124.051 603.84 125.256 603.075C126.468 602.31 127.884 601.928 129.506 601.928C130.491 601.928 131.445 602.09 132.369 602.416C133.294 602.742 134.123 603.253 134.858 603.95C135.593 604.647 136.172 605.553 136.597 606.666C137.021 607.772 137.233 609.117 137.233 610.7V611.905H123.358V609.359H133.903C133.903 608.465 133.722 607.674 133.358 606.984C132.994 606.287 132.483 605.738 131.824 605.337C131.172 604.935 130.407 604.734 129.528 604.734C128.574 604.734 127.741 604.969 127.028 605.439C126.324 605.901 125.778 606.507 125.392 607.257C125.013 608 124.824 608.806 124.824 609.678V611.666C124.824 612.833 125.028 613.825 125.438 614.643C125.854 615.462 126.434 616.087 127.176 616.518C127.919 616.943 128.786 617.155 129.778 617.155C130.422 617.155 131.009 617.064 131.54 616.882C132.07 616.693 132.528 616.412 132.915 616.041C133.301 615.67 133.597 615.212 133.801 614.666L137.017 615.246C136.759 616.193 136.297 617.022 135.631 617.734C134.972 618.439 134.142 618.988 133.142 619.382C132.15 619.768 131.017 619.962 129.744 619.962ZM155.435 602.155L149.105 619.609H145.469L139.128 602.155H142.776L147.196 615.587H147.378L151.787 602.155H155.435ZM165.557 619.962C163.837 619.962 162.356 619.594 161.114 618.859C159.879 618.117 158.924 617.075 158.25 615.734C157.583 614.386 157.25 612.806 157.25 610.996C157.25 609.208 157.583 607.632 158.25 606.268C158.924 604.905 159.864 603.84 161.068 603.075C162.28 602.31 163.697 601.928 165.318 601.928C166.303 601.928 167.258 602.09 168.182 602.416C169.106 602.742 169.936 603.253 170.67 603.95C171.405 604.647 171.985 605.553 172.409 606.666C172.833 607.772 173.045 609.117 173.045 610.7V611.905H159.17V609.359H169.716C169.716 608.465 169.534 607.674 169.17 606.984C168.807 606.287 168.295 605.738 167.636 605.337C166.985 604.935 166.22 604.734 165.341 604.734C164.386 604.734 163.553 604.969 162.841 605.439C162.136 605.901 161.591 606.507 161.205 607.257C160.826 608 160.636 608.806 160.636 609.678V611.666C160.636 612.833 160.841 613.825 161.25 614.643C161.667 615.462 162.246 616.087 162.989 616.518C163.731 616.943 164.598 617.155 165.591 617.155C166.235 617.155 166.822 617.064 167.352 616.882C167.883 616.693 168.341 616.412 168.727 616.041C169.114 615.67 169.409 615.212 169.614 614.666L172.83 615.246C172.572 616.193 172.11 617.022 171.443 617.734C170.784 618.439 169.955 618.988 168.955 619.382C167.962 619.768 166.83 619.962 165.557 619.962ZM180.213 596.337V619.609H176.815V596.337H180.213ZM192.136 619.962C190.5 619.962 189.072 619.587 187.852 618.837C186.633 618.087 185.686 617.037 185.011 615.689C184.337 614.34 184 612.765 184 610.962C184 609.151 184.337 607.568 185.011 606.212C185.686 604.856 186.633 603.803 187.852 603.053C189.072 602.303 190.5 601.928 192.136 601.928C193.773 601.928 195.201 602.303 196.42 603.053C197.64 603.803 198.587 604.856 199.261 606.212C199.936 607.568 200.273 609.151 200.273 610.962C200.273 612.765 199.936 614.34 199.261 615.689C198.587 617.037 197.64 618.087 196.42 618.837C195.201 619.587 193.773 619.962 192.136 619.962ZM192.148 617.109C193.208 617.109 194.087 616.829 194.784 616.268C195.481 615.708 195.996 614.962 196.33 614.03C196.67 613.098 196.841 612.071 196.841 610.95C196.841 609.837 196.67 608.814 196.33 607.882C195.996 606.943 195.481 606.189 194.784 605.621C194.087 605.053 193.208 604.768 192.148 604.768C191.08 604.768 190.193 605.053 189.489 605.621C188.792 606.189 188.273 606.943 187.932 607.882C187.598 608.814 187.432 609.837 187.432 610.95C187.432 612.071 187.598 613.098 187.932 614.03C188.273 614.962 188.792 615.708 189.489 616.268C190.193 616.829 191.08 617.109 192.148 617.109ZM204.065 626.155V602.155H207.384V604.984H207.668C207.865 604.621 208.149 604.2 208.52 603.723C208.891 603.246 209.406 602.829 210.065 602.473C210.724 602.109 211.596 601.928 212.679 601.928C214.088 601.928 215.346 602.284 216.452 602.996C217.558 603.708 218.425 604.734 219.054 606.075C219.69 607.416 220.009 609.03 220.009 610.916C220.009 612.803 219.694 614.42 219.065 615.768C218.437 617.109 217.573 618.143 216.474 618.871C215.376 619.59 214.122 619.95 212.713 619.95C211.652 619.95 210.785 619.772 210.111 619.416C209.444 619.06 208.921 618.643 208.543 618.166C208.164 617.689 207.872 617.265 207.668 616.893H207.463V626.155H204.065ZM207.395 610.882C207.395 612.109 207.573 613.185 207.929 614.109C208.285 615.034 208.8 615.757 209.474 616.28C210.149 616.795 210.974 617.053 211.952 617.053C212.967 617.053 213.815 616.784 214.497 616.246C215.179 615.7 215.694 614.962 216.043 614.03C216.399 613.098 216.577 612.049 216.577 610.882C216.577 609.731 216.402 608.696 216.054 607.78C215.713 606.863 215.198 606.14 214.509 605.609C213.827 605.079 212.974 604.814 211.952 604.814C210.967 604.814 210.134 605.068 209.452 605.575C208.777 606.083 208.266 606.791 207.918 607.7C207.569 608.609 207.395 609.67 207.395 610.882ZM231.338 619.962C229.618 619.962 228.137 619.594 226.895 618.859C225.66 618.117 224.705 617.075 224.031 615.734C223.365 614.386 223.031 612.806 223.031 610.996C223.031 609.208 223.365 607.632 224.031 606.268C224.705 604.905 225.645 603.84 226.849 603.075C228.062 602.31 229.478 601.928 231.099 601.928C232.084 601.928 233.039 602.09 233.963 602.416C234.887 602.742 235.717 603.253 236.452 603.95C237.187 604.647 237.766 605.553 238.19 606.666C238.615 607.772 238.827 609.117 238.827 610.7V611.905H224.952V609.359H235.497C235.497 608.465 235.315 607.674 234.952 606.984C234.588 606.287 234.077 605.738 233.418 605.337C232.766 604.935 232.001 604.734 231.122 604.734C230.168 604.734 229.334 604.969 228.622 605.439C227.918 605.901 227.372 606.507 226.986 607.257C226.607 608 226.418 608.806 226.418 609.678V611.666C226.418 612.833 226.622 613.825 227.031 614.643C227.448 615.462 228.027 616.087 228.77 616.518C229.512 616.943 230.38 617.155 231.372 617.155C232.016 617.155 232.603 617.064 233.134 616.882C233.664 616.693 234.122 616.412 234.509 616.041C234.895 615.67 235.19 615.212 235.395 614.666L238.611 615.246C238.353 616.193 237.891 617.022 237.224 617.734C236.565 618.439 235.736 618.988 234.736 619.382C233.743 619.768 232.611 619.962 231.338 619.962ZM242.597 619.609V602.155H245.881V604.928H246.062C246.381 603.988 246.941 603.25 247.744 602.712C248.555 602.166 249.472 601.893 250.494 601.893C250.706 601.893 250.956 601.901 251.244 601.916C251.54 601.931 251.771 601.95 251.938 601.973V605.223C251.801 605.185 251.559 605.143 251.21 605.098C250.862 605.045 250.513 605.018 250.165 605.018C249.362 605.018 248.646 605.189 248.017 605.53C247.396 605.863 246.903 606.329 246.54 606.928C246.176 607.518 245.994 608.193 245.994 608.95V619.609H242.597Z" fill="white"/>
<rect x="20.5" y="639.5" width="167.938" height="41" rx="20.5" stroke="white"/>
<path d="M38.376 665V653.8H40.376L43.768 664.392H43.96L47.352 653.8H49.352V665H48.36V654.408H48.168L44.776 665H42.952L39.56 654.408H39.368V665H38.376ZM54.7824 665L51.1824 653.8H52.2544L55.5984 664.408H55.7904L59.1344 653.8H60.2064L56.6064 665H54.7824ZM65.7503 665.224C64.4383 665.224 63.3876 664.84 62.5983 664.072C61.8196 663.293 61.4303 662.157 61.4303 660.664V658.136C61.4303 656.643 61.8196 655.512 62.5983 654.744C63.3876 653.965 64.4383 653.576 65.7503 653.576C67.0516 653.576 68.0436 653.944 68.7263 654.68C69.4196 655.405 69.7663 656.397 69.7663 657.656V657.736H68.7423V657.624C68.7423 656.707 68.4969 655.96 68.0063 655.384C67.5263 654.797 66.7743 654.504 65.7503 654.504C64.7156 654.504 63.9049 654.819 63.3183 655.448C62.7423 656.077 62.4543 656.963 62.4543 658.104V660.696C62.4543 661.837 62.7423 662.723 63.3183 663.352C63.9049 663.981 64.7156 664.296 65.7503 664.296C66.7743 664.296 67.5263 664.008 68.0063 663.432C68.4969 662.845 68.7423 662.093 68.7423 661.176V660.936H69.7663V661.144C69.7663 662.403 69.4196 663.4 68.7263 664.136C68.0436 664.861 67.0516 665.224 65.7503 665.224ZM75.0105 665L78.6745 653.8H80.4985L84.1625 665H83.0905L82.1305 662.024H77.0425L76.0825 665H75.0105ZM77.3305 661.096H81.8425L79.6825 654.408H79.4905L77.3305 661.096ZM86.0174 665V657.224H86.9454V658.2H87.1374C87.2867 657.848 87.5054 657.592 87.7934 657.432C88.092 657.272 88.5027 657.192 89.0254 657.192H89.9374V658.088H88.9134C88.3267 658.088 87.8574 658.253 87.5054 658.584C87.1534 658.915 86.9774 659.432 86.9774 660.136V665H86.0174ZM95.1944 665.224C94.437 665.224 93.7597 665.064 93.1624 664.744C92.5757 664.413 92.1117 663.944 91.7704 663.336C91.429 662.728 91.2584 662.013 91.2584 661.192V661.032C91.2584 660.2 91.429 659.485 91.7704 658.888C92.1117 658.28 92.5757 657.816 93.1624 657.496C93.7597 657.165 94.437 657 95.1944 657C95.941 657 96.5704 657.144 97.0824 657.432C97.605 657.709 98.0104 658.077 98.2984 658.536C98.597 658.984 98.7837 659.459 98.8584 659.96L97.9144 660.152C97.861 659.736 97.7277 659.357 97.5144 659.016C97.301 658.664 97.0024 658.387 96.6184 658.184C96.2344 657.971 95.7597 657.864 95.1944 657.864C94.629 657.864 94.1224 657.997 93.6744 658.264C93.2264 658.52 92.869 658.888 92.6024 659.368C92.3464 659.837 92.2184 660.397 92.2184 661.048V661.176C92.2184 661.827 92.3464 662.392 92.6024 662.872C92.869 663.341 93.2264 663.709 93.6744 663.976C94.1224 664.232 94.629 664.36 95.1944 664.36C96.0477 664.36 96.6984 664.141 97.1464 663.704C97.5944 663.256 97.8717 662.712 97.9784 662.072L98.9224 662.264C98.8264 662.765 98.6237 663.245 98.3144 663.704C98.0157 664.152 97.605 664.52 97.0824 664.808C96.5704 665.085 95.941 665.224 95.1944 665.224ZM101.283 665V653.8H102.243V658.584H102.435C102.563 658.328 102.739 658.088 102.963 657.864C103.198 657.629 103.496 657.443 103.859 657.304C104.232 657.155 104.696 657.08 105.251 657.08C105.816 657.08 106.334 657.197 106.803 657.432C107.272 657.667 107.646 658.019 107.923 658.488C108.211 658.957 108.355 659.549 108.355 660.264V665H107.395V660.328C107.395 659.475 107.182 658.867 106.755 658.504C106.328 658.131 105.758 657.944 105.043 657.944C104.243 657.944 103.576 658.205 103.043 658.728C102.51 659.251 102.243 660.045 102.243 661.112V665H101.283ZM111.08 665V657.224H112.04V665H111.08ZM111.56 655.88C111.325 655.88 111.128 655.8 110.968 655.64C110.808 655.48 110.728 655.283 110.728 655.048C110.728 654.803 110.808 654.605 110.968 654.456C111.128 654.296 111.325 654.216 111.56 654.216C111.805 654.216 112.003 654.296 112.152 654.456C112.312 654.605 112.392 654.803 112.392 655.048C112.392 655.283 112.312 655.48 112.152 655.64C112.003 655.8 111.805 655.88 111.56 655.88ZM117.677 665C117.261 665 116.946 664.893 116.733 664.68C116.53 664.467 116.429 664.168 116.429 663.784V658.088H113.933V657.224H116.429V654.312H117.389V657.224H120.109V658.088H117.389V663.656C117.389 663.976 117.549 664.136 117.869 664.136H119.693V665H117.677ZM125.555 665.224C124.755 665.224 124.056 665.059 123.459 664.728C122.872 664.387 122.413 663.912 122.083 663.304C121.752 662.696 121.587 661.997 121.587 661.208V661.016C121.587 660.216 121.752 659.517 122.083 658.92C122.413 658.312 122.867 657.843 123.443 657.512C124.029 657.171 124.696 657 125.443 657C126.168 657 126.808 657.155 127.363 657.464C127.928 657.763 128.371 658.2 128.691 658.776C129.011 659.341 129.171 660.019 129.171 660.808V661.32H122.547C122.579 662.291 122.872 663.043 123.427 663.576C123.992 664.099 124.701 664.36 125.555 664.36C126.28 664.36 126.84 664.195 127.235 663.864C127.64 663.533 127.949 663.128 128.163 662.648L129.027 663.032C128.867 663.384 128.643 663.731 128.355 664.072C128.077 664.403 127.715 664.68 127.267 664.904C126.819 665.117 126.248 665.224 125.555 665.224ZM122.562 660.488H128.195C128.152 659.645 127.88 659 127.379 658.552C126.877 658.093 126.232 657.864 125.443 657.864C124.664 657.864 124.019 658.093 123.507 658.552C122.995 659 122.68 659.645 122.562 660.488ZM135.085 665.224C134.328 665.224 133.65 665.064 133.053 664.744C132.466 664.413 132.002 663.944 131.661 663.336C131.32 662.728 131.149 662.013 131.149 661.192V661.032C131.149 660.2 131.32 659.485 131.661 658.888C132.002 658.28 132.466 657.816 133.053 657.496C133.65 657.165 134.328 657 135.085 657C135.832 657 136.461 657.144 136.973 657.432C137.496 657.709 137.901 658.077 138.189 658.536C138.488 658.984 138.674 659.459 138.749 659.96L137.805 660.152C137.752 659.736 137.618 659.357 137.405 659.016C137.192 658.664 136.893 658.387 136.509 658.184C136.125 657.971 135.65 657.864 135.085 657.864C134.52 657.864 134.013 657.997 133.565 658.264C133.117 658.52 132.76 658.888 132.493 659.368C132.237 659.837 132.109 660.397 132.109 661.048V661.176C132.109 661.827 132.237 662.392 132.493 662.872C132.76 663.341 133.117 663.709 133.565 663.976C134.013 664.232 134.52 664.36 135.085 664.36C135.938 664.36 136.589 664.141 137.037 663.704C137.485 663.256 137.762 662.712 137.869 662.072L138.813 662.264C138.717 662.765 138.514 663.245 138.205 663.704C137.906 664.152 137.496 664.52 136.973 664.808C136.461 665.085 135.832 665.224 135.085 665.224ZM143.646 665C143.23 665 142.915 664.893 142.702 664.68C142.499 664.467 142.398 664.168 142.398 663.784V658.088H139.902V657.224H142.398V654.312H143.358V657.224H146.078V658.088H143.358V663.656C143.358 663.976 143.518 664.136 143.838 664.136H145.662V665H143.646ZM151.213 665.16C150.658 665.16 150.141 665.043 149.661 664.808C149.191 664.573 148.813 664.221 148.525 663.752C148.247 663.272 148.109 662.675 148.109 661.96V657.224H149.069V661.896C149.069 662.739 149.282 663.352 149.709 663.736C150.135 664.109 150.706 664.296 151.421 664.296C152.221 664.296 152.887 664.035 153.421 663.512C153.954 662.979 154.221 662.179 154.221 661.112V657.224H155.181V665H154.253V663.56H154.061C153.869 663.976 153.554 664.349 153.117 664.68C152.679 665 152.045 665.16 151.213 665.16ZM158.002 665V657.224H158.93V658.2H159.122C159.271 657.848 159.49 657.592 159.778 657.432C160.076 657.272 160.487 657.192 161.01 657.192H161.922V658.088H160.898C160.311 658.088 159.842 658.253 159.49 658.584C159.138 658.915 158.962 659.432 158.962 660.136V665H158.002ZM167.211 665.224C166.411 665.224 165.712 665.059 165.115 664.728C164.528 664.387 164.069 663.912 163.739 663.304C163.408 662.696 163.243 661.997 163.243 661.208V661.016C163.243 660.216 163.408 659.517 163.739 658.92C164.069 658.312 164.523 657.843 165.099 657.512C165.685 657.171 166.352 657 167.099 657C167.824 657 168.464 657.155 169.019 657.464C169.584 657.763 170.027 658.2 170.347 658.776C170.667 659.341 170.827 660.019 170.827 660.808V661.32H164.203C164.235 662.291 164.528 663.043 165.083 663.576C165.648 664.099 166.357 664.36 167.211 664.36C167.936 664.36 168.496 664.195 168.891 663.864C169.296 663.533 169.605 663.128 169.819 662.648L170.683 663.032C170.523 663.384 170.299 663.731 170.011 664.072C169.733 664.403 169.371 664.68 168.923 664.904C168.475 665.117 167.904 665.224 167.211 665.224ZM164.219 660.488H169.851C169.808 659.645 169.536 659 169.035 658.552C168.533 658.093 167.888 657.864 167.099 657.864C166.32 657.864 165.675 658.093 165.163 658.552C164.651 659 164.336 659.645 164.219 660.488Z" fill="white"/>
<rect x="201.438" y="639.5" width="86.7188" height="41" rx="20.5" stroke="white"/>
<path d="M218.706 665V664.072H220.306V654.728H218.706V653.8H222.962C224.423 653.8 225.559 654.173 226.37 654.92C227.191 655.656 227.602 656.808 227.602 658.376V660.44C227.602 662.008 227.191 663.16 226.37 663.896C225.559 664.632 224.423 665 222.962 665H218.706ZM221.33 664.072H222.962C224.135 664.072 225.031 663.789 225.65 663.224C226.268 662.659 226.578 661.747 226.578 660.488V658.328C226.578 657.059 226.268 656.147 225.65 655.592C225.031 655.027 224.135 654.744 222.962 654.744H221.33V664.072ZM228.371 668.2V667.336H229.491C229.811 667.336 229.971 667.176 229.971 666.856V657.224H230.931V666.984C230.931 667.368 230.825 667.667 230.611 667.88C230.409 668.093 230.099 668.2 229.683 668.2H228.371ZM230.451 655.88C230.217 655.88 230.019 655.8 229.859 655.64C229.699 655.48 229.619 655.283 229.619 655.048C229.619 654.803 229.699 654.605 229.859 654.456C230.019 654.296 230.217 654.216 230.451 654.216C230.697 654.216 230.894 654.296 231.043 654.456C231.203 654.605 231.283 654.803 231.283 655.048C231.283 655.283 231.203 655.48 231.043 655.64C230.894 655.8 230.697 655.88 230.451 655.88ZM236.136 665.224C235.592 665.224 235.096 665.133 234.648 664.952C234.21 664.76 233.864 664.483 233.608 664.12C233.352 663.757 233.224 663.32 233.224 662.808C233.224 662.285 233.352 661.853 233.608 661.512C233.864 661.171 234.21 660.915 234.648 660.744C235.085 660.573 235.57 660.488 236.104 660.488H238.952V659.864C238.952 659.235 238.77 658.744 238.408 658.392C238.045 658.04 237.517 657.864 236.824 657.864C236.141 657.864 235.597 658.035 235.192 658.376C234.797 658.707 234.53 659.155 234.392 659.72L233.464 659.448C233.592 658.989 233.794 658.579 234.072 658.216C234.349 657.843 234.717 657.549 235.176 657.336C235.634 657.112 236.184 657 236.824 657C237.805 657 238.562 657.256 239.096 657.768C239.64 658.28 239.912 658.995 239.912 659.912V663.688C239.912 664.008 240.061 664.168 240.36 664.168H241.112V665H240.088C239.757 665 239.496 664.904 239.304 664.712C239.112 664.509 239.016 664.237 239.016 663.896V663.784H238.856C238.717 664.019 238.536 664.248 238.312 664.472C238.098 664.696 237.816 664.877 237.464 665.016C237.112 665.155 236.669 665.224 236.136 665.224ZM236.2 664.36C237.021 664.36 237.682 664.115 238.184 663.624C238.696 663.123 238.952 662.419 238.952 661.512V661.32H236.12C235.565 661.32 235.101 661.443 234.728 661.688C234.365 661.923 234.184 662.291 234.184 662.792C234.184 663.293 234.37 663.683 234.744 663.96C235.128 664.227 235.613 664.36 236.2 664.36ZM242.939 665V657.224H243.867V658.664H244.059C244.251 658.248 244.566 657.88 245.003 657.56C245.441 657.229 246.075 657.064 246.907 657.064C247.473 657.064 247.99 657.181 248.459 657.416C248.929 657.651 249.302 658.008 249.579 658.488C249.867 658.957 250.011 659.549 250.011 660.264V665H249.051V660.328C249.051 659.475 248.838 658.861 248.411 658.488C247.985 658.115 247.414 657.928 246.699 657.928C245.899 657.928 245.233 658.195 244.699 658.728C244.166 659.251 243.899 660.045 243.899 661.112V665H242.939ZM252.352 661.144V660.952C252.352 660.131 252.517 659.427 252.848 658.84C253.189 658.253 253.643 657.8 254.208 657.48C254.773 657.16 255.403 657 256.096 657C256.949 657 257.611 657.171 258.08 657.512C258.56 657.843 258.912 658.221 259.136 658.648H259.328V657.224H260.224V666.984C260.224 667.368 260.123 667.667 259.92 667.88C259.717 668.093 259.408 668.2 258.992 668.2H253.68V667.336H258.8C259.131 667.336 259.296 667.176 259.296 666.856V663.512H259.104C258.965 663.768 258.768 664.019 258.512 664.264C258.267 664.509 257.947 664.712 257.552 664.872C257.157 665.021 256.672 665.096 256.096 665.096C255.403 665.096 254.768 664.936 254.192 664.616C253.627 664.296 253.179 663.843 252.848 663.256C252.517 662.659 252.352 661.955 252.352 661.144ZM256.32 664.232C257.205 664.232 257.92 663.955 258.464 663.4C259.019 662.845 259.296 662.083 259.296 661.112V660.984C259.296 660.003 259.019 659.24 258.464 658.696C257.92 658.141 257.205 657.864 256.32 657.864C255.445 657.864 254.731 658.141 254.176 658.696C253.621 659.24 253.344 660.003 253.344 660.984V661.112C253.344 662.083 253.621 662.845 254.176 663.4C254.731 663.955 255.445 664.232 256.32 664.232ZM266.585 665.224C265.796 665.224 265.102 665.059 264.505 664.728C263.918 664.387 263.46 663.917 263.129 663.32C262.809 662.712 262.649 662.008 262.649 661.208V661.016C262.649 660.216 262.809 659.517 263.129 658.92C263.46 658.312 263.918 657.843 264.505 657.512C265.102 657.171 265.796 657 266.585 657C267.374 657 268.062 657.171 268.649 657.512C269.246 657.843 269.705 658.312 270.025 658.92C270.356 659.517 270.521 660.216 270.521 661.016V661.208C270.521 662.008 270.356 662.712 270.025 663.32C269.705 663.917 269.246 664.387 268.649 664.728C268.062 665.059 267.374 665.224 266.585 665.224ZM266.585 664.36C267.502 664.36 268.228 664.072 268.761 663.496C269.294 662.909 269.561 662.136 269.561 661.176V661.048C269.561 660.088 269.294 659.32 268.761 658.744C268.228 658.157 267.502 657.864 266.585 657.864C265.678 657.864 264.953 658.157 264.409 658.744C263.876 659.32 263.609 660.088 263.609 661.048V661.176C263.609 662.136 263.876 662.909 264.409 663.496C264.953 664.072 265.678 664.36 266.585 664.36Z" fill="white"/>
<rect x="301.156" y="639.5" width="124.719" height="41" rx="20.5" stroke="white"/>
<path d="M319.032 665V653.8H321.032L324.424 664.392H324.616L328.008 653.8H330.008V665H329.016V654.408H328.824L325.432 665H323.608L320.216 654.408H320.024V665H319.032ZM332.767 665V653.8H339.535V654.728H333.791V658.92H339.087V659.848H333.791V664.072H339.599V665H332.767ZM341.845 665V653.8H346.229C346.922 653.8 347.53 653.917 348.053 654.152C348.586 654.387 349.002 654.728 349.301 655.176C349.61 655.613 349.765 656.147 349.765 656.776V656.936C349.765 657.693 349.583 658.291 349.221 658.728C348.858 659.155 348.431 659.437 347.941 659.576V659.768C348.314 659.779 348.629 659.896 348.885 660.12C349.141 660.344 349.269 660.701 349.269 661.192V665H348.245V661.304C348.245 660.963 348.149 660.701 347.957 660.52C347.775 660.339 347.498 660.248 347.125 660.248H342.869V665H341.845ZM342.869 659.32H346.133C346.965 659.32 347.605 659.128 348.053 658.744C348.511 658.349 348.741 657.789 348.741 657.064V656.984C348.741 656.259 348.517 655.704 348.069 655.32C347.631 654.925 346.986 654.728 346.133 654.728H342.869V659.32ZM351.939 665V653.8H353.971L358.547 664.392H358.739V653.8H359.763V665H357.731L353.155 654.392H352.963V665H351.939ZM370.29 665.224C369.49 665.224 368.775 665.085 368.146 664.808C367.517 664.52 367.021 664.088 366.658 663.512C366.295 662.925 366.114 662.184 366.114 661.288V660.984H367.138V661.288C367.138 662.323 367.431 663.091 368.018 663.592C368.615 664.083 369.373 664.328 370.29 664.328C371.218 664.328 371.933 664.115 372.434 663.688C372.935 663.251 373.186 662.696 373.186 662.024C373.186 661.576 373.074 661.219 372.85 660.952C372.637 660.675 372.333 660.456 371.938 660.296C371.554 660.125 371.106 659.976 370.594 659.848L369.57 659.592C368.962 659.432 368.418 659.235 367.938 659C367.458 658.755 367.079 658.44 366.802 658.056C366.525 657.661 366.386 657.16 366.386 656.552C366.386 655.944 366.541 655.416 366.85 654.968C367.17 654.52 367.607 654.179 368.162 653.944C368.717 653.699 369.362 653.576 370.098 653.576C370.834 653.576 371.495 653.704 372.082 653.96C372.679 654.216 373.149 654.595 373.49 655.096C373.842 655.587 374.018 656.205 374.018 656.952V657.704H372.994V656.952C372.994 656.365 372.866 655.891 372.61 655.528C372.354 655.165 372.007 654.899 371.57 654.728C371.133 654.557 370.642 654.472 370.098 654.472C369.319 654.472 368.674 654.653 368.162 655.016C367.661 655.368 367.41 655.88 367.41 656.552C367.41 657 367.511 657.357 367.714 657.624C367.927 657.891 368.221 658.104 368.594 658.264C368.978 658.424 369.426 658.568 369.938 658.696L370.962 658.952C371.549 659.091 372.087 659.277 372.578 659.512C373.069 659.736 373.463 660.051 373.762 660.456C374.061 660.851 374.21 661.373 374.21 662.024C374.21 662.675 374.045 663.24 373.714 663.72C373.394 664.2 372.941 664.573 372.354 664.84C371.767 665.096 371.079 665.224 370.29 665.224ZM379.333 665C378.917 665 378.603 664.893 378.389 664.68C378.187 664.467 378.085 664.168 378.085 663.784V658.088H375.589V657.224H378.085V654.312H379.045V657.224H381.765V658.088H379.045V663.656C379.045 663.976 379.205 664.136 379.525 664.136H381.349V665H379.333ZM386.23 665.224C385.686 665.224 385.19 665.133 384.742 664.952C384.304 664.76 383.958 664.483 383.702 664.12C383.446 663.757 383.318 663.32 383.318 662.808C383.318 662.285 383.446 661.853 383.702 661.512C383.958 661.171 384.304 660.915 384.742 660.744C385.179 660.573 385.664 660.488 386.198 660.488H389.046V659.864C389.046 659.235 388.864 658.744 388.502 658.392C388.139 658.04 387.611 657.864 386.918 657.864C386.235 657.864 385.691 658.035 385.286 658.376C384.891 658.707 384.624 659.155 384.486 659.72L383.558 659.448C383.686 658.989 383.888 658.579 384.166 658.216C384.443 657.843 384.811 657.549 385.27 657.336C385.728 657.112 386.278 657 386.918 657C387.899 657 388.656 657.256 389.19 657.768C389.734 658.28 390.006 658.995 390.006 659.912V663.688C390.006 664.008 390.155 664.168 390.454 664.168H391.206V665H390.182C389.851 665 389.59 664.904 389.398 664.712C389.206 664.509 389.11 664.237 389.11 663.896V663.784H388.95C388.811 664.019 388.63 664.248 388.406 664.472C388.192 664.696 387.91 664.877 387.558 665.016C387.206 665.155 386.763 665.224 386.23 665.224ZM386.294 664.36C387.115 664.36 387.776 664.115 388.278 663.624C388.79 663.123 389.046 662.419 389.046 661.512V661.32H386.214C385.659 661.32 385.195 661.443 384.822 661.688C384.459 661.923 384.278 662.291 384.278 662.792C384.278 663.293 384.464 663.683 384.838 663.96C385.222 664.227 385.707 664.36 386.294 664.36ZM396.351 665.224C395.593 665.224 394.916 665.064 394.319 664.744C393.732 664.413 393.268 663.944 392.927 663.336C392.585 662.728 392.415 662.013 392.415 661.192V661.032C392.415 660.2 392.585 659.485 392.927 658.888C393.268 658.28 393.732 657.816 394.319 657.496C394.916 657.165 395.593 657 396.351 657C397.097 657 397.727 657.144 398.239 657.432C398.761 657.709 399.167 658.077 399.455 658.536C399.753 658.984 399.94 659.459 400.015 659.96L399.071 660.152C399.017 659.736 398.884 659.357 398.671 659.016C398.457 658.664 398.159 658.387 397.775 658.184C397.391 657.971 396.916 657.864 396.351 657.864C395.785 657.864 395.279 657.997 394.831 658.264C394.383 658.52 394.025 658.888 393.759 659.368C393.503 659.837 393.375 660.397 393.375 661.048V661.176C393.375 661.827 393.503 662.392 393.759 662.872C394.025 663.341 394.383 663.709 394.831 663.976C395.279 664.232 395.785 664.36 396.351 664.36C397.204 664.36 397.855 664.141 398.303 663.704C398.751 663.256 399.028 662.712 399.135 662.072L400.079 662.264C399.983 662.765 399.78 663.245 399.471 663.704C399.172 664.152 398.761 664.52 398.239 664.808C397.727 665.085 397.097 665.224 396.351 665.224ZM402.439 665V653.8H403.399V660.552H403.591L407.575 657.224H408.983L404.375 661.016L409.111 665H407.719L403.591 661.496H403.399V665H402.439Z" fill="white"/>
<defs>
<pattern id="pattern0" patternContentUnits="objectBoundingBox" width="1" height="1">
<use xlink:href="#image0_5491_4329" transform="matrix(0.00063012 0 0 0.000540103 0 -0.106265)"/>
</pattern>
<linearGradient id="paint0_linear_5491_4329" x1="300" y1="0" x2="300" y2="700" gradientUnits="userSpaceOnUse">
<stop stop-color="#FFC5C8"/>
<stop offset="1" stop-color="#111115"/>
</linearGradient>
</defs>
</svg>